<?xml version="1.0" encoding="UTF-8" standalone="no"?>
<!DOCTYPE svg PUBLIC "-//W3C//DTD SVG 1.1//EN" "http://www.w3.org/Graphics/SVG/1.1/DTD/svg11.dtd">
<svg width="100%" height="100%" viewBox="0 0 962 294" version="1.1" xmlns="http://www.w3.org/2000/svg" xmlns:xlink="http://www.w3.org/1999/xlink" xml:space="preserve" xmlns:serif="http://www.serif.com/" style="fill-rule:evenodd;clip-rule:evenodd;stroke-linejoin:round;stroke-miterlimit:2;">
    <g transform="matrix(1,0,0,1,-794.269681,-390.153744)">
        <g transform="matrix(1,0,0,1,598.700133,459.776422)">
            <g transform="matrix(85.416667,0,0,85.416667,887.807645,206.460661)">
            </g>
            <text x="189.063px" y="206.461px" style="font-family:'Helvetica';font-size:85.417px;fill:rgb(212,26,104);">K<tspan x="245.009px 291.487px 361.613px 408.091px 454.569px 472.519px 518.997px 544.909px 596.058px 642.536px 689.014px 705.749px 766.407px 812.885px 840.303px " y="206.461px 206.461px 206.461px 206.461px 206.461px 206.461px 206.461px 206.461px 206.461px 206.461px 206.461px 206.461px 206.461px 206.461px 206.461px ">ampala The Core</tspan></text>
        </g>
        <g transform="matrix(4.166667,0,0,4.166667,0,0)">
            <g transform="matrix(0.418922,0,0,0.418933,380.035323,143.399855)">
                <path d="M0,-93.433L0.25,-93.007L1.169,-91.418L3.075,-92.419C3.253,-92.508 3.355,-92.731 3.388,-93.007C3.425,-93.867 2.803,-95.032 1.9,-94.488C1.196,-94.121 0.768,-93.867 0,-93.433M-1.99,-93.007L-2.493,-93.91C-1.171,-94.748 0.25,-95.476 1.621,-96.208C3.233,-97.098 5.509,-94.942 5.349,-93.007C5.319,-92.666 5.223,-92.356 5.022,-92.042L8.32,-89.642C7.698,-89.351 7.227,-89.103 6.486,-88.78L3.597,-90.891L2.004,-90.038L3.701,-87.232C3.044,-86.814 2.645,-86.553 1.877,-86.106L-1.99,-93.007ZM41.616,-2.541L44.621,6.037C45.205,5.834 45.833,5.656 46.425,5.398L43.51,-3.142C42.711,-2.87 42.343,-2.76 41.616,-2.541M29.605,5.554L28.901,3.82L28.19,1.943L27.572,3.82L26.964,5.669L29.605,5.554ZM30.794,3.82L32.758,8.586C32.115,8.613 31.517,8.678 30.942,8.744L30.336,7.204L26.407,7.314L25.957,8.924C25.33,8.87 24.743,8.852 24.12,8.852L25.815,3.82L27.021,0.002L27.079,-0.119L29.083,-0.209L29.185,0.033L30.794,3.82ZM40.656,-96.443L42.687,-95.789C43.243,-95.629 43.978,-96.499 43.978,-97.258C43.978,-97.618 43.852,-97.939 43.368,-98.045C42.617,-98.335 42.103,-98.464 41.284,-98.671L40.865,-97.258L40.656,-96.443ZM39.411,-91.702C38.684,-91.913 38.146,-92.003 37.346,-92.231L38.821,-97.258L39.898,-100.841C41.452,-100.455 42.93,-99.951 44.408,-99.47C45.245,-99.213 45.692,-98.265 45.778,-97.258C45.833,-95.888 45.153,-94.401 43.77,-94.09L44.308,-90.038C43.659,-90.307 43.18,-90.508 42.461,-90.791L41.992,-94.331L40.257,-94.864L39.411,-91.702ZM11.808,-0.492C11.753,-0.747 11.651,-0.95 11.338,-1.093L9.063,-1.931L8.549,-0.492L8.367,0.033L8.351,0.067L10.425,0.843C10.994,1.095 11.544,0.589 11.741,0.033C11.808,-0.119 11.866,-0.309 11.808,-0.492M13.512,-0.492L13.512,0.002C13.374,1.212 12.552,2.442 11.221,2.596L11.53,6.823C10.912,6.682 10.214,6.477 9.556,6.197L9.485,2.221L7.698,1.456L6.25,4.966C5.663,4.772 5.079,4.584 4.506,4.303L6.342,0.033L6.561,-0.492L8.054,-4.015L12.122,-2.445C13.027,-2.123 13.444,-1.317 13.512,-0.492M39.466,-1.775C36.825,-1.196 34.792,-0.716 32.172,-0.309L32.414,1.212C33.384,1.06 34.27,0.944 35.292,0.815L36.613,8.144L38.559,7.777L36.981,0.469C37.982,0.221 38.903,-0.031 39.898,-0.264L39.466,-1.775ZM49.389,-87.512L51.351,-91.291L56.648,-93.753C56.09,-94.152 55.488,-94.432 54.929,-94.799L51.281,-93.138L50.609,-97.098C49.846,-97.459 49.389,-97.618 48.595,-97.939L49.657,-92.178L47.692,-88.444L49.389,-87.512ZM69.251,-85.2C68.416,-86.223 67.03,-86.071 66.631,-85.357L60.465,-79.164C59.562,-78.224 59.65,-76.847 60.586,-76.179C69.892,-65.878 73.78,-53.056 70.729,-37.178C70.66,-36.138 71.315,-35.302 72.128,-35.067L80.652,-32.596C81.788,-32.273 82.513,-32.964 82.755,-33.935C87.142,-53.482 81.137,-72.699 69.251,-85.2M79.111,-28.041L70.58,-30.954C70.134,-31.12 68.969,-31.12 68.359,-29.619C61.47,-13.096 45.432,-1.789 26.86,-1.789C8.265,-1.789 -8.068,-13.356 -14.662,-29.877C-15.152,-31.12 -16.351,-31.12 -16.804,-30.954L-25.289,-28.041C-26.21,-27.709 -26.763,-26.892 -26.28,-25.713C-17.946,-4.445 2.778,10.568 26.86,10.568C50.937,10.568 71.755,-4.549 80.116,-25.803C80.55,-26.915 80.026,-27.709 79.111,-28.041M-26.681,-32.596L-18.171,-35.067C-17.373,-35.302 -16.716,-36.138 -16.779,-37.178C-19.835,-53.029 -15.953,-65.878 -6.662,-76.179C-5.722,-76.847 -5.622,-78.224 -6.52,-79.164L-12.707,-85.382C-13.307,-86.071 -14.4,-86.071 -15.338,-85.114C-27.195,-72.635 -33.183,-53.482 -28.79,-33.902C-28.548,-32.964 -27.805,-32.273 -26.681,-32.596M58.694,-72.22C58.718,-72.599 58.485,-73.078 57.953,-73.601C51.14,-80.808 44.144,-84.839 34.547,-87.121C34.008,-87.261 33.384,-87.388 32.968,-87.021C32.537,-86.677 32.414,-86.012 32.5,-85.017L34.082,-62.815C34.133,-61.973 34.512,-61.307 35.073,-60.969C35.689,-60.62 36.426,-60.684 37.19,-61.053L57.185,-70.703C57.826,-71.014 58.555,-71.353 58.694,-72.036C58.694,-72.079 58.718,-72.134 58.694,-72.22M62.737,-32.535C63.331,-32.15 64.019,-31.683 64.645,-31.9C65.069,-32.029 65.435,-32.495 65.669,-33.333C68.469,-42.824 68.469,-50.931 65.669,-60.309C65.497,-60.897 65.224,-61.505 64.731,-61.725C64.232,-61.904 63.605,-61.699 62.708,-61.09L44.369,-48.62C43.659,-48.143 43.297,-47.493 43.297,-46.82C43.297,-46.151 43.659,-45.5 44.369,-45.031L62.737,-32.535ZM32.913,-6.73C33.251,-6.465 33.806,-6.387 34.659,-6.6C44.199,-8.889 51.195,-12.932 58.014,-20.087C58.421,-20.558 58.866,-21.043 58.733,-21.58C58.608,-22.096 58.17,-22.563 57.24,-23.001L37.239,-32.707C36.481,-33.065 35.744,-33.065 35.134,-32.747C34.547,-32.375 34.188,-31.746 34.133,-30.868L32.516,-8.729C32.5,-8.003 32.414,-7.176 32.913,-6.73M26.86,-32.375C34.758,-32.375 41.178,-38.785 41.178,-46.681C41.178,-54.577 34.758,-60.995 26.86,-61.024C18.967,-61.024 12.552,-54.577 12.552,-46.681C12.552,-38.785 18.967,-32.375 26.86,-32.375M-4.596,-21.211C-4.596,-20.831 -4.338,-20.358 -3.855,-19.856C3.022,-12.623 9.986,-8.598 19.549,-6.353C20.161,-6.167 20.761,-6.076 21.185,-6.408C21.617,-6.73 21.741,-7.395 21.668,-8.441C21.668,-8.474 20.042,-30.641 20.042,-30.641C19.973,-31.482 19.655,-32.123 19.066,-32.461C18.47,-32.811 17.727,-32.811 16.93,-32.447L-3.018,-22.737C-3.714,-22.413 -4.469,-22.047 -4.573,-21.394C-4.573,-21.351 -4.596,-21.267 -4.596,-21.211M-4.885,-71.866C-4.801,-71.198 -4.041,-70.856 -3.376,-70.545L16.593,-60.843C17.387,-60.464 18.126,-60.464 18.728,-60.778C19.291,-61.146 19.655,-61.785 19.705,-62.634L21.318,-84.787C21.406,-85.858 21.256,-86.485 20.871,-86.814C20.448,-87.177 19.823,-87.074 19.223,-86.964C9.651,-84.662 2.676,-80.617 -4.199,-73.448C-4.754,-72.82 -5.012,-72.293 -4.885,-71.866M-8.895,-60.942C-9.548,-61.364 -10.242,-61.846 -10.811,-61.594C-11.274,-61.454 -11.612,-60.969 -11.855,-60.181C-14.63,-50.656 -14.63,-42.58 -11.855,-33.179C-11.667,-32.567 -11.456,-31.957 -10.899,-31.802C-10.443,-31.613 -9.771,-31.802 -8.895,-32.406L9.43,-44.89C10.111,-45.348 10.525,-45.999 10.525,-46.652C10.525,-47.362 10.111,-47.985 9.43,-48.463L-8.895,-60.942ZM-9.296,-88.673L-3.376,-82.079C-2.549,-81.189 -1.638,-81.299 -0.442,-82.234C7.038,-88.102 16.634,-91.572 26.86,-91.572C37.098,-91.572 46.701,-88.115 54.253,-82.234C55.433,-81.362 56.319,-81.189 57.185,-82.079L63.108,-88.673C63.779,-89.402 63.779,-90.407 62.494,-91.482C52.566,-99.213 40.31,-103.984 26.837,-103.984C13.444,-103.984 1.013,-99.213 -8.738,-91.447C-10.015,-90.407 -9.958,-89.402 -9.296,-88.673M98.981,-46.627C98.981,-45.788 98.942,-44.943 98.848,-44.271L98.824,-44.089L98.629,-43.989C95.566,-42.165 91.607,-41.127 87.637,-41.018C87.541,-40.515 87.111,-36.928 87.036,-36.424C90.739,-35.357 94.328,-33.333 96.831,-30.747L96.932,-30.586L96.932,-30.422C96.737,-29.011 96.236,-27.116 95.681,-25.887L95.618,-25.693L95.439,-25.664C91.967,-24.665 87.877,-24.702 84.092,-25.638C83.912,-25.169 82.513,-21.836 82.372,-21.351C85.688,-19.256 88.62,-16.374 90.27,-13.299L90.356,-13.127L90.301,-12.947C89.785,-11.723 88.816,-9.952 87.947,-8.889L87.856,-8.729L87.637,-8.729C84.092,-8.687 80.136,-9.739 76.681,-11.663C76.367,-11.25 74.06,-8.203 73.747,-7.792C76.468,-4.989 78.533,-1.435 79.369,2.07L79.424,2.252L79.322,2.379C78.533,3.452 77.078,4.874 76.025,5.726L75.899,5.834L75.639,5.783C72.23,4.874 68.627,2.811 65.826,0.104C65.411,0.417 62.551,2.651 62.127,2.968C63.957,6.32 65.069,10.177 65.069,13.663L65.069,14.148L64.856,14.267C63.802,15.118 62.049,16.132 60.798,16.644L60.673,16.697L60.465,16.629C57.396,14.842 54.456,11.927 52.446,8.586C51.962,8.799 48.482,10.289 48.007,10.498C48.482,12.359 48.763,14.306 48.818,16.23C48.818,18.173 48.482,20.116 48.007,21.872L47.981,22.046L47.794,22.147C46.631,22.632 44.666,23.119 43.297,23.357L43.086,23.387L42.969,23.24C40.326,20.726 38.303,17.151 37.239,13.415C36.768,13.45 33.163,13.939 32.655,14.044C32.592,17.962 31.517,21.934 29.652,25.013L29.552,25.176L29.339,25.203C28.088,25.392 26.082,25.392 24.718,25.203L24.55,25.176L24.429,25.013C22.624,21.934 21.543,17.962 21.457,14.044C20.919,13.991 17.121,13.45 16.593,13.415C15.555,17.127 13.512,20.683 10.94,23.226L10.803,23.357L10.59,23.326C9.18,23.119 7.329,22.575 6.086,22.061L5.937,21.989L5.874,21.831C5.349,20.081 5.079,18.118 5.079,16.173C5.079,14.267 5.349,12.359 5.833,10.498C5.349,10.289 2.064,8.958 1.589,8.744C-0.442,12.142 -3.376,15.094 -6.473,16.816L-6.637,16.908L-6.834,16.855C-8.117,16.283 -9.806,15.313 -10.899,14.494L-11.032,14.361L-11.032,13.991C-11.032,10.463 -9.958,6.578 -8.117,3.181C-8.523,2.864 -11.589,0.536 -12.009,0.221C-14.816,2.927 -18.392,4.966 -21.846,5.851L-22.024,5.906L-22.214,5.783C-23.269,4.93 -24.628,3.558 -25.482,2.481L-25.598,2.293L-25.547,2.111C-24.628,-1.372 -22.56,-4.928 -19.87,-7.691C-20.179,-8.109 -22.497,-11.114 -22.826,-11.565C-26.243,-9.649 -30.237,-8.543 -33.781,-8.633L-33.97,-8.633L-34.092,-8.754C-34.921,-9.851 -35.912,-11.602 -36.445,-12.844L-36.526,-13.029L-36.445,-13.194C-34.661,-16.318 -31.746,-19.201 -28.416,-21.197C-28.632,-21.709 -30.051,-25.066 -30.291,-25.539C-34.076,-24.597 -38.189,-24.569 -41.651,-25.539L-41.82,-25.592L-41.921,-25.748C-42.388,-26.915 -42.902,-28.88 -43.114,-30.262L-43.153,-30.479L-43.028,-30.641C-40.51,-33.208 -36.969,-35.239 -33.183,-36.361C-33.224,-36.891 -33.781,-40.707 -33.836,-41.235C-37.788,-41.288 -41.763,-42.308 -44.854,-44.146L-45.01,-44.247L-45.023,-44.46C-45.11,-45.102 -45.135,-45.94 -45.135,-46.79C-45.135,-47.619 -45.11,-48.433 -45.023,-49.126L-45.01,-49.339L-44.854,-49.424C-41.763,-51.246 -37.788,-52.302 -33.836,-52.36C-33.754,-52.881 -33.284,-56.592 -33.224,-57.092C-36.969,-58.166 -40.543,-60.216 -43.082,-62.774L-43.188,-62.899L-43.153,-63.097C-42.989,-64.524 -42.451,-66.431 -41.921,-67.614L-41.863,-67.786L-41.677,-67.839C-38.258,-68.847 -34.123,-68.819 -30.323,-67.886C-30.112,-68.348 -28.726,-71.694 -28.516,-72.197C-31.871,-74.226 -34.817,-77.114 -36.569,-80.232L-36.657,-80.431L-36.569,-80.617C-36.017,-81.869 -35.028,-83.564 -34.25,-84.628L-34.123,-84.787L-33.91,-84.787C-30.323,-84.839 -26.368,-83.743 -22.955,-81.852C-22.636,-82.234 -20.308,-85.382 -19.991,-85.801C-22.698,-88.623 -24.747,-92.158 -25.633,-95.662L-25.672,-95.812L-25.598,-95.966C-24.73,-97.053 -23.293,-98.464 -22.243,-99.293L-22.075,-99.397L-21.917,-99.366C-18.392,-98.464 -14.838,-96.367 -12.07,-93.675C-11.667,-93.996 -8.895,-96.132 -8.484,-96.443C-10.39,-99.78 -11.456,-103.669 -11.456,-107.125L-11.456,-107.645L-11.28,-107.767C-10.242,-108.579 -8.484,-109.588 -7.229,-110.097L-7.096,-110.182L-6.887,-110.091C-3.8,-108.344 -0.895,-105.422 1.134,-102.077C1.621,-102.26 5.223,-103.825 5.718,-104.023C5.247,-105.887 4.954,-107.819 4.983,-109.733C4.983,-111.722 5.223,-113.617 5.749,-115.365L5.775,-115.582L5.961,-115.631C7.124,-116.118 9.063,-116.64 10.425,-116.849L10.645,-116.876L10.803,-116.739C13.374,-114.239 15.422,-110.659 16.503,-106.884C17.031,-106.937 20.818,-107.414 21.324,-107.506C21.406,-111.394 22.47,-115.365 24.327,-118.45L24.407,-118.612L24.6,-118.665C25.957,-118.825 27.955,-118.825 29.269,-118.665L29.443,-118.612L29.552,-118.45C31.419,-115.365 32.5,-111.394 32.5,-107.541C33.069,-107.414 36.768,-106.937 37.296,-106.884C38.402,-110.659 40.435,-114.212 43.024,-116.722L43.141,-116.849L43.313,-116.796C44.723,-116.64 46.631,-116.118 47.856,-115.582L48.007,-115.522L48.067,-115.309C48.595,-113.578 48.851,-111.692 48.851,-109.733C48.818,-107.799 48.537,-105.852 48.067,-103.984C48.537,-103.792 52.133,-102.287 52.634,-102.077C54.628,-105.422 57.498,-108.321 60.618,-110.091L60.798,-110.182L60.985,-110.097C62.221,-109.573 63.951,-108.579 65.014,-107.743L65.173,-107.645L65.173,-107.16C65.173,-103.616 64.074,-99.743 62.221,-96.443C62.62,-96.132 65.591,-93.808 66.037,-93.466C68.836,-96.185 72.394,-98.265 75.899,-99.127L76.056,-99.213L76.21,-99.048C77.266,-98.265 78.689,-96.785 79.495,-95.724L79.643,-95.568L79.581,-95.388C78.689,-91.883 76.578,-88.326 73.888,-85.543C74.201,-85.114 76.437,-82.169 76.781,-81.744C80.268,-83.618 84.21,-84.693 87.783,-84.628L87.947,-84.628L88.065,-84.47C88.933,-83.36 89.926,-81.641 90.411,-80.46L90.528,-80.232L90.411,-80.061C88.636,-76.967 85.719,-74.102 82.372,-72.059C82.575,-71.552 83.936,-68.193 84.196,-67.723C87.947,-68.668 92.076,-68.689 95.493,-67.723L95.697,-67.682L95.775,-67.485C96.252,-66.297 96.807,-64.367 96.989,-62.948L97.018,-62.774L96.878,-62.634C94.367,-60.033 90.794,-57.998 87.036,-56.937C87.111,-56.419 87.58,-52.752 87.668,-52.231C91.623,-52.147 95.566,-51.088 98.629,-49.273L98.824,-49.158L98.848,-48.972C98.942,-48.304 98.981,-47.493 98.981,-46.627M58.608,-12.623L62.362,-8.576L56.061,-10.435C55.537,-10.036 55.185,-9.898 54.722,-9.493L60.205,-2.123C60.673,-2.487 61.158,-2.93 61.595,-3.304L58.268,-7.737L64.631,-5.822C65.069,-6.201 65.693,-6.629 66.123,-7.169L59.775,-13.88C59.437,-13.512 59.046,-13.029 58.608,-12.623M54.253,-1.841C54.253,-2.385 54.114,-2.87 53.856,-3.339C53.103,-4.739 51.32,-5.19 49.93,-4.392C48.951,-3.867 48.45,-2.87 48.45,-1.841C48.482,-1.372 48.595,-0.846 48.873,-0.403C48.951,-0.264 49.045,-0.119 49.186,0.033C50.057,1.075 51.596,1.318 52.779,0.63C53.103,0.469 53.363,0.258 53.572,0.033C54.006,-0.492 54.253,-1.196 54.253,-1.841M55.275,-4.099C55.66,-3.423 55.848,-2.641 55.879,-1.841C55.879,-1.218 55.746,-0.578 55.488,0.002C55.066,0.843 54.442,1.595 53.572,2.098C51.453,3.335 48.712,2.596 47.426,0.417C47.381,0.291 47.324,0.155 47.238,0.002C46.98,-0.578 46.855,-1.218 46.8,-1.841C46.855,-3.446 47.637,-4.928 49.076,-5.761C51.228,-6.981 54.006,-6.252 55.275,-4.099M64.756,-16.159L65.826,-14.468L66.805,-12.764L68.125,-14.468L68.469,-14.892L64.756,-16.159ZM63.73,-18.226L72.754,-15.262C72.543,-14.994 72.375,-14.738 72.183,-14.468C72.027,-14.265 71.839,-14.06 71.714,-13.796L70.134,-14.364L67.671,-11.288L68.57,-9.878C68.203,-9.46 67.789,-9.006 67.319,-8.543L63.746,-14.468L62.424,-16.652L63.73,-18.226ZM73.723,-19.561L67.096,-23.21L66.248,-21.684L74.201,-17.244L77.266,-22.737L75.899,-23.469L73.723,-19.561ZM21.318,-0.403L20.659,5.114L18.009,-0.936C17.387,-1.058 17,-1.218 16.374,-1.317L14.294,7.605C14.937,7.777 15.555,7.845 16.218,7.961L17.332,2.481L20.018,8.586C20.628,8.678 21.318,8.87 22.028,8.852L23.023,-0.363C22.501,-0.393 21.881,-0.309 21.318,-0.403M21.011,-100.472L21.809,-93.08L23.75,-93.284L22.99,-100.621L25.926,-100.802L25.815,-102.449C22.536,-102.26 21.185,-102.128 17.94,-101.644L18.157,-100.08L21.011,-100.472ZM30.004,-96.443C30.989,-96.396 31.904,-96.287 32.827,-96.156L32.342,-98.045L31.732,-99.992L30.817,-98.045L30.004,-96.443ZM28.503,-93.369C27.744,-93.377 27.394,-93.377 26.651,-93.377L28.901,-98.045L30.942,-102.287L32.968,-102.077L34.031,-98.045L35.501,-92.627C34.821,-92.754 34.291,-92.856 33.648,-92.893L33.124,-94.592C31.787,-94.799 30.579,-94.864 29.339,-94.918L28.503,-93.369ZM9.708,-95.603C9.829,-93.996 11.254,-92.823 12.801,-92.955C14.328,-93.112 15.467,-94.331 15.467,-95.867C15.522,-95.943 15.467,-96.031 15.467,-96.132C15.334,-97.747 13.944,-98.88 12.334,-98.729C10.803,-98.615 9.651,-97.403 9.708,-95.867L9.708,-95.603ZM8.054,-95.443L8.054,-95.867C8.007,-98.203 9.798,-100.126 12.152,-100.314C14.638,-100.557 16.847,-98.729 17.057,-96.228L17.057,-95.867C17.057,-93.534 15.295,-91.54 12.902,-91.32C10.486,-91.107 8.265,-92.927 8.054,-95.443M27.021,-38.04C31.732,-38.04 35.607,-41.911 35.607,-46.627C35.607,-50.545 32.882,-53.953 29.13,-54.89C29.083,-55.275 28.98,-57.066 28.98,-57.066L24.649,-57.066C24.649,-57.066 24.55,-55.121 24.515,-54.733C20.919,-53.643 18.495,-50.364 18.495,-46.627C18.495,-41.911 22.366,-38.04 27.021,-38.04M26.86,-33.771C19.76,-33.771 13.96,-39.597 13.96,-46.681C13.96,-53.817 19.76,-59.613 26.86,-59.613C34.008,-59.613 39.755,-53.817 39.755,-46.681C39.755,-39.565 33.978,-33.771 26.86,-33.771M1.447,-5.657C2.676,-4.989 3.878,-4.291 5.223,-3.654L6.031,-4.989C4.168,-5.951 2.42,-7.051 0.854,-8.138L-4.285,-0.596C-2.336,0.694 -0.555,1.771 1.447,2.927L2.275,1.595L-1.869,-0.846L-0.469,-2.813L2.275,-1.163L3.075,-2.445C2.193,-2.93 1.275,-3.489 0.313,-4.078L1.447,-5.657ZM-8.828,-16.843L-13.051,-13.194L-10.899,-19.449C-11.28,-19.985 -11.456,-20.358 -11.855,-20.851L-19.424,-15.715C-19.086,-15.207 -18.671,-14.738 -18.312,-14.212L-13.761,-17.365L-15.895,-11.063C-15.526,-10.646 -15.152,-10.009 -14.63,-9.585L-7.628,-15.59C-8.015,-16.005 -8.484,-16.374 -8.828,-16.843M-13.831,-24.114L-21.627,-19.561C-21.347,-19.015 -21.047,-18.374 -20.704,-17.848L-12.893,-22.413C-13.274,-23.101 -13.489,-23.469 -13.831,-24.114M-4.199,-9.931L-9.004,-4.228L-10.502,-5.526L-5.532,-11.063C-6.319,-11.792 -6.92,-12.449 -7.683,-13.127L-6.576,-14.237C-4.684,-12.449 -3.018,-11.063 -0.931,-9.382L-1.888,-8.158C-2.649,-8.754 -3.433,-9.327 -4.199,-9.931" style="fill:rgb(212,26,104);fill-rule:nonzero;"/>
            </g>
        </g>
        <g transform="matrix(4.166667,0,0,4.166667,0,0)">
            <g transform="matrix(0.418922,0,0,0.418933,278.844379,113.170864)">
                <path d="M0,42.261L0.266,47.397C0.306,48.165 -0.235,48.853 -0.994,49C-3.166,49.4 -6.154,49.889 -8.03,49.889C-17.445,49.889 -20.317,46.281 -20.317,34.479L-20.317,16.445L-23.928,16.445C-24.789,16.445 -25.484,15.748 -25.484,14.888L-25.484,9.556C-25.484,8.696 -24.789,8.006 -23.928,8.006L-20.317,8.006L-20.317,1.664C-20.317,0.945 -19.831,0.321 -19.143,0.154L-12.894,-1.366C-12.432,-1.476 -11.948,-1.374 -11.575,-1.082C-11.199,-0.783 -10.972,-0.339 -10.972,0.141L-10.972,8.006L-1.471,8.006C-0.603,8.006 0.086,8.696 0.086,9.556L0.086,14.888C0.086,15.748 -0.603,16.445 -1.471,16.445L-10.972,16.445L-10.972,33.167C-10.972,38.947 -10.768,40.955 -6.717,40.955C-5.216,40.955 -2.878,40.845 -1.618,40.786C-0.783,40.768 -0.04,41.397 0,42.261M-29.488,28.25C-29.488,43.145 -35.148,49.792 -47.842,49.792C-60.595,49.792 -66.288,43.145 -66.288,28.25C-66.288,13.571 -60.595,7.025 -47.842,7.025C-35.322,7.025 -29.488,13.762 -29.488,28.25M-38.989,28.25C-38.989,19.101 -41.476,15.545 -47.842,15.545C-54.441,15.545 -56.778,18.868 -56.778,28.25C-56.778,36.755 -55.355,41.353 -47.842,41.353C-40.443,41.353 -38.989,36.553 -38.989,28.25M178.737,42.261L179.003,47.397C179.04,48.165 178.502,48.853 177.743,49C175.568,49.4 172.582,49.889 170.711,49.889C161.291,49.889 158.42,46.281 158.42,34.479L158.42,16.445L154.807,16.445C153.948,16.445 153.253,15.748 153.253,14.888L153.253,9.556C153.253,8.696 153.948,8.006 154.807,8.006L158.42,8.006L158.42,1.664C158.42,0.945 158.906,0.321 159.598,0.154L165.841,-1.366C166.303,-1.476 166.786,-1.374 167.164,-1.082C167.538,-0.783 167.765,-0.339 167.765,0.141L167.765,8.006L177.268,8.006C178.134,8.006 178.823,8.696 178.823,9.556L178.823,14.888C178.823,15.748 178.134,16.445 177.268,16.445L167.765,16.445L167.765,33.167C167.765,38.947 167.967,40.955 172.024,40.955C173.519,40.955 175.859,40.845 177.118,40.786C177.954,40.768 178.697,41.397 178.737,42.261M-71.98,46.718C-71.769,47.197 -71.815,47.751 -72.097,48.196C-72.387,48.638 -72.871,48.899 -73.403,48.899L-80.652,48.899C-81.262,48.899 -81.824,48.534 -82.066,47.976L-91.35,27.087C-95.969,27.054 -99.973,26.808 -102.139,26.656L-102.139,47.347C-102.139,48.206 -102.827,48.899 -103.687,48.899L-110.171,48.899C-111.031,48.899 -111.726,48.206 -111.726,47.347L-111.726,-5.051C-111.726,-5.842 -111.132,-6.504 -110.343,-6.592C-102.032,-7.531 -95.376,-7.628 -92.904,-7.628C-92.053,-7.628 -91.598,-7.623 -91.598,-7.623C-75.648,-7.623 -72.292,1.801 -72.292,9.695C-72.292,16.289 -75.443,21.051 -81.919,24.264L-71.98,46.718ZM-91.631,1.37L-95.046,1.37C-98.863,1.37 -101.038,1.656 -102.139,1.878L-102.139,18.032C-100.319,18.158 -96.807,18.344 -92.084,18.294C-85.993,18.23 -82.216,14.996 -82.216,9.862C-82.216,5.756 -84.685,1.37 -91.631,1.37M38.116,20.869L38.116,47.984C38.116,48.437 37.921,48.864 37.584,49.159C37.241,49.455 36.786,49.587 36.349,49.524C33.176,49.079 31.665,48.086 30.163,46.931C30.102,46.96 23.079,49.792 16.808,49.792C9.257,49.792 4.925,45.025 4.925,36.691C4.925,28.556 8.89,24.956 18.615,24.229L28.771,23.413L28.771,20.948C28.771,17.828 26.918,16.034 23.69,16.034C19.24,16.034 12.889,16.555 9.508,16.858C9.085,16.904 8.657,16.766 8.336,16.487C8.023,16.212 7.828,15.803 7.812,15.383L7.608,10.198C7.577,9.409 8.14,8.723 8.914,8.606C11.94,8.122 19.475,7.025 24.183,7.025C33.69,7.025 38.116,11.427 38.116,20.869M19.756,31.188C16.089,31.533 14.345,33.208 14.345,36.439C14.345,38.42 14.892,41.775 18.527,41.775C22.846,41.775 28.71,40.146 28.771,40.126L28.771,30.711L19.756,31.188ZM108.61,20.869L108.61,47.984C108.61,48.437 108.41,48.864 108.078,49.159C107.731,49.455 107.28,49.587 106.842,49.524C103.667,49.079 102.159,48.086 100.657,46.931C100.593,46.96 93.573,49.792 87.302,49.792C79.748,49.792 75.415,45.025 75.415,36.691C75.415,28.556 79.381,24.956 89.109,24.229L99.265,23.413L99.265,20.948C99.265,17.828 97.412,16.034 94.182,16.034C89.733,16.034 83.383,16.555 79.997,16.858C79.575,16.904 79.146,16.766 78.825,16.487C78.513,16.212 78.317,15.803 78.3,15.383L78.097,10.198C78.066,9.409 78.629,8.723 79.403,8.606C82.429,8.122 89.969,7.025 94.674,7.025C104.184,7.025 108.61,11.427 108.61,20.869M90.25,31.188C86.58,31.533 84.839,33.208 84.839,36.439C84.839,38.42 85.384,41.775 89.021,41.775C93.337,41.775 99.204,40.146 99.265,40.126L99.265,30.711L90.25,31.188ZM68.442,7.696C64.311,7.942 60.249,10.301 57.721,12.098L57.721,9.556C57.721,8.696 57.024,8.006 56.164,8.006L49.924,8.006C49.064,8.006 48.367,8.696 48.367,9.556L48.367,47.347C48.367,48.206 49.064,48.899 49.924,48.899L56.164,48.899C57.024,48.899 57.721,48.206 57.721,47.347L57.721,21.225C59.128,20.053 63.484,16.786 68.675,16.326C69.474,16.258 70.091,15.585 70.091,14.78L70.091,9.241C70.091,8.813 69.918,8.408 69.599,8.118C69.293,7.817 68.862,7.656 68.442,7.696M147.597,41.432L147.802,46.617C147.835,47.406 147.27,48.092 146.496,48.211C143.468,48.697 138.65,49.792 133.941,49.792C121.187,49.792 115.499,43.246 115.499,28.567L115.506,28.567C115.506,28.459 115.499,28.358 115.499,28.25C115.499,13.571 121.187,7.025 133.941,7.025C138.65,7.025 143.468,8.122 146.496,8.606C147.27,8.723 147.835,9.409 147.802,10.198L147.597,15.383C147.582,15.803 147.386,16.212 147.074,16.487C146.753,16.766 146.322,16.904 145.902,16.858C142.516,16.555 138.389,15.545 133.941,15.545C127.342,15.545 125.002,18.868 125.002,28.25C125.002,28.609 125.011,28.949 125.013,29.297C125.018,29.499 125.018,29.71 125.026,29.906C125.035,30.205 125.046,30.495 125.062,30.781C125.073,31.054 125.086,31.324 125.106,31.581C125.115,31.724 125.125,31.856 125.137,31.993C125.706,38.765 128.221,41.267 133.941,41.267C138.389,41.267 142.516,40.258 145.902,39.959C146.322,39.915 146.753,40.047 147.074,40.328C147.386,40.603 147.582,41.014 147.597,41.432" style="fill:rgb(212,26,104);fill-rule:nonzero;"/>
            </g>
        </g>
    </g>
</svg>
